<svg xmlns="http://www.w3.org/2000/svg" viewBox="0 0 1200 630" width="1200" height="630">
  <rect width="1200" height="630" fill="#0d0e0f"/>
  <!-- Grid lines -->
  <line x1="0" y1="210" x2="1200" y2="210" stroke="rgba(255,255,255,0.05)" stroke-width="1"/>
  <line x1="0" y1="420" x2="1200" y2="420" stroke="rgba(255,255,255,0.05)" stroke-width="1"/>
  <line x1="400" y1="0" x2="400" y2="630" stroke="rgba(255,255,255,0.05)" stroke-width="1"/>
  <line x1="800" y1="0" x2="800" y2="630" stroke="rgba(255,255,255,0.05)" stroke-width="1"/>
  <!-- Logo icon -->
  <rect x="92" y="190" width="70" height="90" rx="10" fill="none" stroke="#e8e4dc" stroke-width="3"/>
  <rect x="138" y="220" width="70" height="90" rx="10" fill="#0d0e0f" stroke="#3ecfcf" stroke-width="3"/>
  <path d="M178 248 L196 260 L178 272" stroke="#3ecfcf" stroke-width="3" stroke-linecap="round" stroke-linejoin="round" fill="none"/>
  <!-- Title -->
  <text x="240" y="270" font-family="'Syne', system-ui, sans-serif" font-size="52" font-weight="800" fill="#e8e4dc" letter-spacing="-2">FreeFileConverter</text>
  <text x="240" y="315" font-family="'IBM Plex Mono', monospace" font-size="18" fill="#5a5650" letter-spacing="2">FREEFILECONVERTER.ORG</text>
  <!-- Format pills -->
  <rect x="92" y="360" width="82" height="34" rx="6" fill="#1c1f22" stroke="rgba(62,207,207,0.4)" stroke-width="1"/>
  <text x="133" y="383" font-family="'IBM Plex Mono', monospace" font-size="14" fill="#3ecfcf" text-anchor="middle" font-weight="500">PNG</text>
  <rect x="188" y="360" width="82" height="34" rx="6" fill="#1c1f22" stroke="rgba(62,207,207,0.4)" stroke-width="1"/>
  <text x="229" y="383" font-family="'IBM Plex Mono', monospace" font-size="14" fill="#3ecfcf" text-anchor="middle" font-weight="500">JPG</text>
  <rect x="284" y="360" width="82" height="34" rx="6" fill="#1c1f22" stroke="rgba(62,207,207,0.4)" stroke-width="1"/>
  <text x="325" y="383" font-family="'IBM Plex Mono', monospace" font-size="14" fill="#3ecfcf" text-anchor="middle" font-weight="500">WebP</text>
  <rect x="380" y="360" width="82" height="34" rx="6" fill="#1c1f22" stroke="rgba(62,207,207,0.4)" stroke-width="1"/>
  <text x="421" y="383" font-family="'IBM Plex Mono', monospace" font-size="14" fill="#3ecfcf" text-anchor="middle" font-weight="500">CSV</text>
  <rect x="476" y="360" width="82" height="34" rx="6" fill="#1c1f22" stroke="rgba(62,207,207,0.4)" stroke-width="1"/>
  <text x="517" y="383" font-family="'IBM Plex Mono', monospace" font-size="14" fill="#3ecfcf" text-anchor="middle" font-weight="500">JSON</text>
  <rect x="572" y="360" width="82" height="34" rx="6" fill="#1c1f22" stroke="rgba(62,207,207,0.4)" stroke-width="1"/>
  <text x="613" y="383" font-family="'IBM Plex Mono', monospace" font-size="14" fill="#3ecfcf" text-anchor="middle" font-weight="500">DXF</text>
  <rect x="668" y="360" width="82" height="34" rx="6" fill="#1c1f22" stroke="rgba(62,207,207,0.4)" stroke-width="1"/>
  <text x="709" y="383" font-family="'IBM Plex Mono', monospace" font-size="14" fill="#3ecfcf" text-anchor="middle" font-weight="500">SVG</text>
  <!-- Tagline -->
  <text x="92" y="450" font-family="'IBM Plex Mono', monospace" font-size="16" fill="#5a5650">Free · Unlimited · 100% In-Browser · No Uploads</text>
  <!-- Lock badge -->
  <rect x="920" y="250" width="188" height="44" rx="8" fill="#1c1f22" stroke="rgba(93,201,122,0.4)" stroke-width="1"/>
  <text x="1014" y="278" font-family="'IBM Plex Mono', monospace" font-size="14" fill="#5dc97a" text-anchor="middle">🔒 Private by design</text>
</svg>
